# xmcd
#
# Track frame offsets:
#	150
#	15805
#	36920
#	50217
#	69284
#	90553
#	108993
#	126195
#	142284
#	159025
#	177455
#	194995
#	211235
#	225747
#	240630
#	265539
#	284297
#	301152
#
# Disc length: 4295 seconds
#
# Revision: 1
# Processed by: cddbd v1.5.1PL2 Copyright (c) Steve Scherf et al.
# Submitted via: audiograbber 1.83.01
#
DISCID=fa10c512
DTITLE=Various Artist - ACK017
DYEAR=1900
DGENRE=karaoke
TTITLE0=BARDOT - I NEED SOMEBODY
TTITLE1=CHRISTINA AGIUILERA - LADY MARMALADE
TTITLE2=CHRISTINE ANU - PARTY
TTITLE3=CONCRETE BLONDE - JOEY
TTITLE4=DEBORAH CONWAY - ONLY THE BEGINNING
TTITLE5=GERI HALLIWELL - ITS RAINING MEN
TTITLE6=JOANNE - SO DAMN FINE
TTITLE7=KASEY CHAMBERS - NOT PRETTY ENOUGH
TTITLE8=KYLIE MINOGUE - I CANT GET YOU OUT OF MY HEAD
TTITLE9=LEONARDOS BRIDE - EVEN WHEN IM SLEEPING
TTITLE10=MARCIA HINES - TIME OF OUR LIVES
TTITLE11=NICKY WEBSTER - STRAWBERRY KISSES
TTITLE12=SCANDALUS - ME MYSELF and I
TTITLE13=SHAKIRA - WHENEVER WHEREVER
TTITLE14=TINA ARENA - HEAVEN HELP MY HEART
TTITLE15=TINA ARENA - NOW I CAN DANCE
TTITLE16=VANESSA AMEROSI - THE POWER
TTITLE17=WENDY MATTHEWS - THE DAY YOU WENT AWAY
EXTD=
EXTT0=
EXTT1=
EXTT2=
EXTT3=
EXTT4=
EXTT5=
EXTT6=
EXTT7=
EXTT8=
EXTT9=
EXTT10=
EXTT11=
EXTT12=
EXTT13=
EXTT14=
EXTT15=
EXTT16=
EXTT17=
PLAYORDER=
